<?xml version="1.0" standalone="no"?>
<!DOCTYPE svg PUBLIC "-//W3C//DTD SVG 20010904//EN"
 "http://www.w3.org/TR/2001/REC-SVG-20010904/DTD/svg10.dtd">
<svg version="1.0" xmlns="http://www.w3.org/2000/svg"
 width="217.000000pt" height="32.000000pt" viewBox="0 0 217.000000 32.000000"
 preserveAspectRatio="xMidYMid meet">

<g transform="translate(0.000000,32.000000) scale(0.100000,-0.100000)"
fill="#000000" stroke="none">
<path d="M276 255 c-3 -8 -1 -15 4 -15 6 0 10 7 10 15 0 8 -2 15 -4 15 -2 0
-6 -7 -10 -15z"/>
<path d="M2091 254 c0 -11 3 -14 6 -6 3 7 2 16 -1 19 -3 4 -6 -2 -5 -13z"/>
<path d="M1440 160 c0 -65 4 -99 10 -95 6 3 10 46 10 95 0 49 -4 92 -10 95 -6
4 -10 -30 -10 -95z"/>
<path d="M1593 165 c0 -87 1 -92 6 -35 6 62 7 65 36 71 l30 7 -32 1 c-27 1
-32 5 -36 29 -2 15 -4 -18 -4 -73z"/>
<path d="M1137 231 c-4 -17 -3 -21 5 -13 5 5 8 16 6 23 -3 8 -7 3 -11 -10z"/>
<path d="M1862 230 c0 -14 2 -19 5 -12 2 6 2 18 0 25 -3 6 -5 1 -5 -13z"/>
<path d="M180 218 c0 -19 2 -20 18 -6 9 9 24 18 32 21 8 3 0 6 -17 6 -27 1
-33 -3 -33 -21z"/>
<path d="M417 234 c-10 -10 -9 -124 2 -124 11 0 22 113 12 123 -4 4 -10 4 -14
1z"/>
<path d="M574 206 c11 -60 -9 -105 -58 -127 -22 -10 -33 -19 -23 -19 10 0 36
9 57 20 l40 20 0 65 c0 37 -5 67 -11 71 -9 5 -10 -4 -5 -30z"/>
<path d="M877 216 c4 -18 -2 -32 -21 -49 -14 -13 -23 -27 -20 -30 7 -7 54 46
54 62 0 6 12 12 28 12 27 2 27 2 2 6 -14 3 -30 9 -36 14 -8 6 -10 2 -7 -15z"/>
<path d="M1310 222 c6 -13 14 -21 18 -18 3 4 -2 14 -12 24 -18 16 -18 16 -6
-6z"/>
<path d="M710 204 c0 -31 23 -28 28 4 2 15 -2 22 -12 22 -11 0 -16 -9 -16 -26z"/>
<path d="M2000 215 c0 -18 1 -18 36 0 l29 15 -32 0 c-23 0 -33 -5 -33 -15z"/>
<path d="M1072 148 c2 -71 2 -72 5 -15 3 39 9 60 18 64 18 6 10 23 -11 23 -11
0 -14 -15 -12 -72z"/>
<path d="M1797 213 c-2 -5 0 -39 3 -78 l7 -70 1 68 c2 56 5 67 20 67 14 0 15
2 2 10 -18 12 -28 12 -33 3z"/>
<path d="M262 165 c0 -16 2 -22 5 -12 2 9 2 23 0 30 -3 6 -5 -1 -5 -18z"/>
<path d="M1260 116 c0 -39 4 -43 24 -23 11 11 10 17 -5 36 l-19 23 0 -36z"/>
<path d="M181 93 l2 -48 6 39 c4 26 13 42 26 47 17 7 16 8 -7 8 -27 1 -28 -1
-27 -46z"/>
<path d="M2000 125 c0 -8 5 -15 10 -15 6 0 10 4 10 9 0 5 8 12 18 14 10 3 6 5
-10 6 -19 1 -28 -4 -28 -14z"/>
<path d="M710 103 c0 -23 5 -33 15 -33 19 0 19 21 0 46 -14 18 -14 17 -15 -13z"/>
<path d="M2091 64 c0 -11 3 -14 6 -6 3 7 2 16 -1 19 -3 4 -6 -2 -5 -13z"/>
<path d="M828 53 c7 -3 16 -2 19 1 4 3 -2 6 -13 5 -11 0 -14 -3 -6 -6z"/>
<path d="M1528 53 c6 -2 18 -2 25 0 6 3 1 5 -13 5 -14 0 -19 -2 -12 -5z"/>
<path d="M1963 43 c9 -2 23 -2 30 0 6 3 -1 5 -18 5 -16 0 -22 -2 -12 -5z"/>
<path d="M118 33 c7 -3 16 -2 19 1 4 3 -2 6 -13 5 -11 0 -14 -3 -6 -6z"/>
</g>
</svg>
